<?xml version="1.0" encoding="UTF-8"?>
<svg id="Layer_1" xmlns="http://www.w3.org/2000/svg" version="1.1" viewBox="0 0 256 256">
  <!-- Generator: Adobe Illustrator 29.0.1, SVG Export Plug-In . SVG Version: 2.1.0 Build 192)  -->
  <defs>
    <style>
      .st0 {
        fill: none;
        stroke: #000;
        stroke-miterlimit: 10;
        stroke-width: 5px;
      }
    </style>
  </defs>
  <path d="M221.4,118.9c0,33.2-8.4,59.5-25.1,79.2-16.8,19.6-38.9,29.4-66.5,29.4H48.6V10.2h81.2c27.6,0,49.8,9.8,66.5,29.4,16.8,19.6,25.1,46,25.1,79.2ZM174.1,118.9c0-22.8-5.4-40.3-16.1-52.7-8.8-10.4-19.5-15.6-32.3-15.6h-31.7v137.1h31.7c12.5,0,23.3-5.3,32.3-15.9,10.8-12.5,16.1-30.2,16.1-53Z"/>
  <line class="st0" x1="-.5" y1="245.8" x2="256.5" y2="245.8"/>
</svg>